,
.   http://www.scenetime.com/signup.php  ---&gt;  Hottest scene tracker on the net !!!
 
Scenetime lucky draw is started , join now and be the winner . offer is limited 

    Join Now   http://www.scenetime.com/signup.php

    seed back for speed


 



...................................NFO:.................................................http://www.imdb.com/title/tt1540404/

General
Complete name                    : Faith.Fraud.And.Minimum.Wage.2010.DVDRip.XviD-MADiSON.avi
Format                           : AVI
Format/Info                      : Audio Video Interleave
Format profile                   : OpenDML
File size                        : 1.06 GiB
Duration                         : 1h 34mn
Overall bit rate                 : 1 602 Kbps
Writing application              : MEncoder SVN-r33823-4.1.2
Writing library                  : MPlayer

Video
ID                               : 0
Format                           : xvid
Codec ID                         : xvid
Duration                         : 1h 34mn
Bit rate                         : 1 475 Kbps
Width                            : 640 pixels
Height                           : 352 pixels
Display aspect ratio             : 16:9
Frame rate                       : 23.976 fps
Bits/(Pixel*Frame)               : 0.273
Stream size                      : 995 MiB (92%)

Audio
ID                               : 1
Format                           : MPEG Audio
Codec ID                         : 55
Codec ID/Hint                    : MP3
Duration                         : 1h 34mn
Bit rate                         : 112 Kbps
Channel(s)                       : 2 channels
Sampling rate                    : 48.0 KHz
Compression mode                 : Lossy
Stream size                      : 1.09 MiB (0%)
Alignment                        : Aligned on interleaves
Interleave, duration             : 1605 ms (38.47 video frames)
Interleave, preload duration     : 145 ms